<mxfile host="Electron" modified="2023-04-19T18:53:43.979Z" agent="Mozilla/5.0 (Windows NT 10.0; Win64; x64) AppleWebKit/537.36 (KHTML, like Gecko) draw.io/21.1.2 Chrome/106.0.5249.199 Electron/21.4.3 Safari/537.36" etag="WnyRkZQj2c2NQFcNemMA" version="21.1.2" type="device">
  <diagram name="Page-1" id="80VSeeQ34DPf-HRmyv6b">
    <mxGraphModel dx="1884" dy="1102" grid="1" gridSize="10" guides="1" tooltips="1" connect="1" arrows="1" fold="1" page="1" pageScale="1" pageWidth="850" pageHeight="1100" math="0" shadow="0">
      <root>
        <mxCell id="0" />
        <mxCell id="1" parent="0" />
        <mxCell id="4Ag6bae1rezzJCkBHGkI-17" style="edgeStyle=orthogonalEdgeStyle;rounded=0;orthogonalLoop=1;jettySize=auto;html=1;entryX=0.503;entryY=-0.041;entryDx=0;entryDy=0;entryPerimeter=0;" parent="1" source="OCj0DkocHqzsoYa3m1xn-5" target="OCj0DkocHqzsoYa3m1xn-8" edge="1">
          <mxGeometry relative="1" as="geometry" />
        </mxCell>
        <mxCell id="OCj0DkocHqzsoYa3m1xn-5" value="" style="ellipse;html=1;shape=startState;fillColor=#000000;strokeColor=#ff0000;" parent="1" vertex="1">
          <mxGeometry x="445" y="20" width="30" height="30" as="geometry" />
        </mxCell>
        <mxCell id="4Ag6bae1rezzJCkBHGkI-16" style="edgeStyle=orthogonalEdgeStyle;rounded=0;orthogonalLoop=1;jettySize=auto;html=1;entryX=0.502;entryY=-0.027;entryDx=0;entryDy=0;entryPerimeter=0;" parent="1" source="OCj0DkocHqzsoYa3m1xn-8" target="OCj0DkocHqzsoYa3m1xn-9" edge="1">
          <mxGeometry relative="1" as="geometry" />
        </mxCell>
        <mxCell id="OCj0DkocHqzsoYa3m1xn-8" value="&lt;font style=&quot;font-size: 22px;&quot;&gt;LOGIN&lt;/font&gt;" style="rounded=0;whiteSpace=wrap;html=1;fillColor=#e1d5e7;strokeColor=#9673a6;" parent="1" vertex="1">
          <mxGeometry x="400" y="100" width="120" height="50" as="geometry" />
        </mxCell>
        <mxCell id="OCj0DkocHqzsoYa3m1xn-14" style="edgeStyle=orthogonalEdgeStyle;rounded=0;orthogonalLoop=1;jettySize=auto;html=1;entryX=0.5;entryY=0;entryDx=0;entryDy=0;" parent="1" source="OCj0DkocHqzsoYa3m1xn-9" target="OCj0DkocHqzsoYa3m1xn-13" edge="1">
          <mxGeometry relative="1" as="geometry" />
        </mxCell>
        <mxCell id="OCj0DkocHqzsoYa3m1xn-15" style="edgeStyle=orthogonalEdgeStyle;rounded=0;orthogonalLoop=1;jettySize=auto;html=1;entryX=0.5;entryY=0;entryDx=0;entryDy=0;" parent="1" source="OCj0DkocHqzsoYa3m1xn-9" target="OCj0DkocHqzsoYa3m1xn-12" edge="1">
          <mxGeometry relative="1" as="geometry" />
        </mxCell>
        <mxCell id="OCj0DkocHqzsoYa3m1xn-9" value="&lt;font style=&quot;font-size: 10px;&quot;&gt;EMAIL/&lt;br&gt;PHONE&lt;/font&gt;" style="rhombus;whiteSpace=wrap;html=1;fillColor=#dae8fc;strokeColor=#6c8ebf;" parent="1" vertex="1">
          <mxGeometry x="420" y="190" width="80" height="80" as="geometry" />
        </mxCell>
        <mxCell id="4Ag6bae1rezzJCkBHGkI-21" style="edgeStyle=orthogonalEdgeStyle;rounded=0;orthogonalLoop=1;jettySize=auto;html=1;" parent="1" source="OCj0DkocHqzsoYa3m1xn-12" target="4Ag6bae1rezzJCkBHGkI-18" edge="1">
          <mxGeometry relative="1" as="geometry" />
        </mxCell>
        <mxCell id="OCj0DkocHqzsoYa3m1xn-12" value="EMAIL LOG IN" style="rounded=1;whiteSpace=wrap;html=1;fillColor=#fff2cc;strokeColor=#d6b656;" parent="1" vertex="1">
          <mxGeometry x="225" y="340" width="120" height="60" as="geometry" />
        </mxCell>
        <mxCell id="4Ag6bae1rezzJCkBHGkI-22" style="edgeStyle=orthogonalEdgeStyle;rounded=0;orthogonalLoop=1;jettySize=auto;html=1;entryX=1;entryY=0.5;entryDx=0;entryDy=0;" parent="1" source="OCj0DkocHqzsoYa3m1xn-13" target="4Ag6bae1rezzJCkBHGkI-18" edge="1">
          <mxGeometry relative="1" as="geometry" />
        </mxCell>
        <mxCell id="OCj0DkocHqzsoYa3m1xn-13" value="MOBILE LOG IN" style="rounded=1;whiteSpace=wrap;html=1;fillColor=#fff2cc;strokeColor=#d6b656;" parent="1" vertex="1">
          <mxGeometry x="565" y="340" width="130" height="60" as="geometry" />
        </mxCell>
        <mxCell id="OCj0DkocHqzsoYa3m1xn-24" style="edgeStyle=orthogonalEdgeStyle;rounded=0;orthogonalLoop=1;jettySize=auto;html=1;entryX=0.5;entryY=0;entryDx=0;entryDy=0;" parent="1" source="OCj0DkocHqzsoYa3m1xn-16" target="OCj0DkocHqzsoYa3m1xn-23" edge="1">
          <mxGeometry relative="1" as="geometry" />
        </mxCell>
        <mxCell id="OCj0DkocHqzsoYa3m1xn-70" style="edgeStyle=orthogonalEdgeStyle;rounded=0;orthogonalLoop=1;jettySize=auto;html=1;" parent="1" source="4Ag6bae1rezzJCkBHGkI-18" target="OCj0DkocHqzsoYa3m1xn-9" edge="1">
          <mxGeometry relative="1" as="geometry" />
        </mxCell>
        <mxCell id="4Ag6bae1rezzJCkBHGkI-30" style="edgeStyle=orthogonalEdgeStyle;rounded=0;orthogonalLoop=1;jettySize=auto;html=1;entryX=0.5;entryY=1;entryDx=0;entryDy=0;" parent="1" source="OCj0DkocHqzsoYa3m1xn-16" target="OCj0DkocHqzsoYa3m1xn-13" edge="1">
          <mxGeometry relative="1" as="geometry" />
        </mxCell>
        <mxCell id="4Ag6bae1rezzJCkBHGkI-31" style="edgeStyle=orthogonalEdgeStyle;rounded=0;orthogonalLoop=1;jettySize=auto;html=1;entryX=0.5;entryY=1;entryDx=0;entryDy=0;" parent="1" source="OCj0DkocHqzsoYa3m1xn-16" target="OCj0DkocHqzsoYa3m1xn-12" edge="1">
          <mxGeometry relative="1" as="geometry" />
        </mxCell>
        <mxCell id="OCj0DkocHqzsoYa3m1xn-16" value="&lt;span style=&quot;font-size: 10px;&quot;&gt;CHECK&lt;br&gt;CREDENTIAL&lt;br&gt;&lt;/span&gt;" style="rhombus;whiteSpace=wrap;html=1;fillColor=#dae8fc;strokeColor=#6c8ebf;" parent="1" vertex="1">
          <mxGeometry x="410" y="470" width="100" height="90" as="geometry" />
        </mxCell>
        <mxCell id="QPi_liKTASzmKQao5r8_-2" style="edgeStyle=orthogonalEdgeStyle;rounded=0;orthogonalLoop=1;jettySize=auto;html=1;" parent="1" source="OCj0DkocHqzsoYa3m1xn-23" target="OCj0DkocHqzsoYa3m1xn-56" edge="1">
          <mxGeometry relative="1" as="geometry" />
        </mxCell>
        <mxCell id="OCj0DkocHqzsoYa3m1xn-23" value="HOME SCREEN" style="rounded=1;whiteSpace=wrap;html=1;fillColor=#e1d5e7;strokeColor=#9673a6;" parent="1" vertex="1">
          <mxGeometry x="400" y="600" width="120" height="40" as="geometry" />
        </mxCell>
        <mxCell id="OCj0DkocHqzsoYa3m1xn-25" value="CORRECT&lt;br&gt;CREDENTIALS" style="text;html=1;strokeColor=#82b366;fillColor=#d5e8d4;align=center;verticalAlign=middle;whiteSpace=wrap;rounded=0;" parent="1" vertex="1">
          <mxGeometry x="490" y="560" width="95" height="30" as="geometry" />
        </mxCell>
        <mxCell id="OCj0DkocHqzsoYa3m1xn-55" style="edgeStyle=orthogonalEdgeStyle;rounded=0;orthogonalLoop=1;jettySize=auto;html=1;entryX=0.5;entryY=0;entryDx=0;entryDy=0;" parent="1" source="OCj0DkocHqzsoYa3m1xn-31" target="OCj0DkocHqzsoYa3m1xn-54" edge="1">
          <mxGeometry relative="1" as="geometry" />
        </mxCell>
        <mxCell id="OCj0DkocHqzsoYa3m1xn-31" value="TRIPS" style="rounded=1;whiteSpace=wrap;html=1;fillColor=#fff2cc;strokeColor=#d6b656;" parent="1" vertex="1">
          <mxGeometry x="185" y="760" width="120" height="60" as="geometry" />
        </mxCell>
        <mxCell id="OCj0DkocHqzsoYa3m1xn-49" style="edgeStyle=orthogonalEdgeStyle;rounded=0;orthogonalLoop=1;jettySize=auto;html=1;entryX=0.5;entryY=0;entryDx=0;entryDy=0;" parent="1" source="OCj0DkocHqzsoYa3m1xn-33" target="OCj0DkocHqzsoYa3m1xn-48" edge="1">
          <mxGeometry relative="1" as="geometry" />
        </mxCell>
        <mxCell id="OCj0DkocHqzsoYa3m1xn-33" value="CHAT" style="rounded=1;whiteSpace=wrap;html=1;fillColor=#fff2cc;strokeColor=#d6b656;" parent="1" vertex="1">
          <mxGeometry x="340" y="760" width="120" height="60" as="geometry" />
        </mxCell>
        <mxCell id="OCj0DkocHqzsoYa3m1xn-89" style="edgeStyle=orthogonalEdgeStyle;rounded=0;orthogonalLoop=1;jettySize=auto;html=1;" parent="1" source="OCj0DkocHqzsoYa3m1xn-34" edge="1">
          <mxGeometry relative="1" as="geometry">
            <mxPoint x="550" y="1160" as="targetPoint" />
          </mxGeometry>
        </mxCell>
        <mxCell id="OCj0DkocHqzsoYa3m1xn-34" value="SEARCH TRIP DESTINATION" style="rounded=1;whiteSpace=wrap;html=1;fillColor=#fff2cc;strokeColor=#d6b656;" parent="1" vertex="1">
          <mxGeometry x="490" y="760" width="120" height="60" as="geometry" />
        </mxCell>
        <mxCell id="4Ag6bae1rezzJCkBHGkI-5" style="edgeStyle=orthogonalEdgeStyle;rounded=0;orthogonalLoop=1;jettySize=auto;html=1;" parent="1" source="OCj0DkocHqzsoYa3m1xn-35" edge="1">
          <mxGeometry relative="1" as="geometry">
            <mxPoint x="720" y="880" as="targetPoint" />
          </mxGeometry>
        </mxCell>
        <mxCell id="OCj0DkocHqzsoYa3m1xn-35" value="Create Traiils" style="rounded=1;whiteSpace=wrap;html=1;fillColor=#fff2cc;strokeColor=#d6b656;" parent="1" vertex="1">
          <mxGeometry x="660" y="760" width="120" height="60" as="geometry" />
        </mxCell>
        <mxCell id="4Ag6bae1rezzJCkBHGkI-10" style="edgeStyle=orthogonalEdgeStyle;rounded=0;orthogonalLoop=1;jettySize=auto;html=1;" parent="1" source="OCj0DkocHqzsoYa3m1xn-36" target="4Ag6bae1rezzJCkBHGkI-8" edge="1">
          <mxGeometry relative="1" as="geometry" />
        </mxCell>
        <mxCell id="OCj0DkocHqzsoYa3m1xn-36" value="USER PROFILE" style="rounded=1;whiteSpace=wrap;html=1;fillColor=#fff2cc;strokeColor=#d6b656;" parent="1" vertex="1">
          <mxGeometry x="920" y="760" width="120" height="60" as="geometry" />
        </mxCell>
        <mxCell id="4Ag6bae1rezzJCkBHGkI-25" style="edgeStyle=orthogonalEdgeStyle;rounded=0;orthogonalLoop=1;jettySize=auto;html=1;exitX=0.5;exitY=1;exitDx=0;exitDy=0;" parent="1" source="OCj0DkocHqzsoYa3m1xn-44" edge="1" target="OCj0DkocHqzsoYa3m1xn-81">
          <mxGeometry relative="1" as="geometry">
            <mxPoint x="-120" y="1160" as="targetPoint" />
            <Array as="points">
              <mxPoint x="90" y="900" />
              <mxPoint x="90" y="900" />
            </Array>
          </mxGeometry>
        </mxCell>
        <mxCell id="OCj0DkocHqzsoYa3m1xn-44" value="LOG OUT" style="rounded=1;whiteSpace=wrap;html=1;fillColor=#fff2cc;strokeColor=#d6b656;" parent="1" vertex="1">
          <mxGeometry x="30" y="760" width="120" height="60" as="geometry" />
        </mxCell>
        <mxCell id="4Ag6bae1rezzJCkBHGkI-3" style="edgeStyle=orthogonalEdgeStyle;rounded=0;orthogonalLoop=1;jettySize=auto;html=1;" parent="1" source="OCj0DkocHqzsoYa3m1xn-48" edge="1">
          <mxGeometry relative="1" as="geometry">
            <mxPoint x="400" y="1160" as="targetPoint" />
          </mxGeometry>
        </mxCell>
        <mxCell id="OCj0DkocHqzsoYa3m1xn-48" value="TEXT/&lt;br&gt;IMAGE/&lt;br&gt;VIDEOS" style="rhombus;whiteSpace=wrap;html=1;fillColor=#dae8fc;strokeColor=#6c8ebf;" parent="1" vertex="1">
          <mxGeometry x="360" y="900" width="80" height="80" as="geometry" />
        </mxCell>
        <mxCell id="4Ag6bae1rezzJCkBHGkI-2" style="edgeStyle=orthogonalEdgeStyle;rounded=0;orthogonalLoop=1;jettySize=auto;html=1;" parent="1" source="OCj0DkocHqzsoYa3m1xn-50" edge="1">
          <mxGeometry relative="1" as="geometry">
            <mxPoint x="650" y="1160" as="targetPoint" />
            <Array as="points">
              <mxPoint x="650" y="1150" />
              <mxPoint x="650" y="1150" />
            </Array>
          </mxGeometry>
        </mxCell>
        <mxCell id="OCj0DkocHqzsoYa3m1xn-50" value="UPLOAD MEIDA" style="rounded=1;whiteSpace=wrap;html=1;fillColor=#e1d5e7;strokeColor=#9673a6;" parent="1" vertex="1">
          <mxGeometry x="590" y="930" width="120" height="70" as="geometry" />
        </mxCell>
        <mxCell id="4Ag6bae1rezzJCkBHGkI-26" style="edgeStyle=orthogonalEdgeStyle;rounded=0;orthogonalLoop=1;jettySize=auto;html=1;" parent="1" source="OCj0DkocHqzsoYa3m1xn-51" edge="1">
          <mxGeometry relative="1" as="geometry">
            <mxPoint x="800" y="1160" as="targetPoint" />
          </mxGeometry>
        </mxCell>
        <mxCell id="OCj0DkocHqzsoYa3m1xn-51" value="LIKE AND COMMENT" style="rounded=1;whiteSpace=wrap;html=1;fillColor=#e1d5e7;strokeColor=#9673a6;" parent="1" vertex="1">
          <mxGeometry x="740" y="930" width="120" height="70" as="geometry" />
        </mxCell>
        <mxCell id="OCj0DkocHqzsoYa3m1xn-85" style="edgeStyle=orthogonalEdgeStyle;rounded=0;orthogonalLoop=1;jettySize=auto;html=1;" parent="1" source="OCj0DkocHqzsoYa3m1xn-54" edge="1" target="OCj0DkocHqzsoYa3m1xn-81">
          <mxGeometry relative="1" as="geometry">
            <mxPoint x="80" y="1160" as="targetPoint" />
            <Array as="points">
              <mxPoint x="245" y="1120" />
              <mxPoint x="245" y="1120" />
            </Array>
          </mxGeometry>
        </mxCell>
        <mxCell id="OCj0DkocHqzsoYa3m1xn-54" value="REQUEST&lt;br&gt;FOR&amp;nbsp;&lt;br&gt;TRIP" style="rhombus;whiteSpace=wrap;html=1;fillColor=#dae8fc;strokeColor=#6c8ebf;" parent="1" vertex="1">
          <mxGeometry x="195" y="880" width="100" height="100" as="geometry" />
        </mxCell>
        <mxCell id="OCj0DkocHqzsoYa3m1xn-61" style="edgeStyle=orthogonalEdgeStyle;rounded=0;orthogonalLoop=1;jettySize=auto;html=1;entryX=0.581;entryY=-0.021;entryDx=0;entryDy=0;entryPerimeter=0;" parent="1" source="OCj0DkocHqzsoYa3m1xn-56" target="OCj0DkocHqzsoYa3m1xn-33" edge="1">
          <mxGeometry relative="1" as="geometry" />
        </mxCell>
        <mxCell id="OCj0DkocHqzsoYa3m1xn-62" style="edgeStyle=orthogonalEdgeStyle;rounded=0;orthogonalLoop=1;jettySize=auto;html=1;" parent="1" source="OCj0DkocHqzsoYa3m1xn-56" target="OCj0DkocHqzsoYa3m1xn-31" edge="1">
          <mxGeometry relative="1" as="geometry" />
        </mxCell>
        <mxCell id="OCj0DkocHqzsoYa3m1xn-64" style="edgeStyle=orthogonalEdgeStyle;rounded=0;orthogonalLoop=1;jettySize=auto;html=1;entryX=0.5;entryY=0;entryDx=0;entryDy=0;" parent="1" source="OCj0DkocHqzsoYa3m1xn-56" target="OCj0DkocHqzsoYa3m1xn-34" edge="1">
          <mxGeometry relative="1" as="geometry" />
        </mxCell>
        <mxCell id="OCj0DkocHqzsoYa3m1xn-65" style="edgeStyle=orthogonalEdgeStyle;rounded=0;orthogonalLoop=1;jettySize=auto;html=1;entryX=0.5;entryY=0;entryDx=0;entryDy=0;" parent="1" source="OCj0DkocHqzsoYa3m1xn-56" target="OCj0DkocHqzsoYa3m1xn-35" edge="1">
          <mxGeometry relative="1" as="geometry" />
        </mxCell>
        <mxCell id="OCj0DkocHqzsoYa3m1xn-66" style="edgeStyle=orthogonalEdgeStyle;rounded=0;orthogonalLoop=1;jettySize=auto;html=1;" parent="1" source="OCj0DkocHqzsoYa3m1xn-56" edge="1">
          <mxGeometry relative="1" as="geometry">
            <mxPoint x="970" y="760" as="targetPoint" />
            <Array as="points">
              <mxPoint x="510" y="720" />
              <mxPoint x="970" y="720" />
              <mxPoint x="970" y="760" />
            </Array>
          </mxGeometry>
        </mxCell>
        <mxCell id="OCj0DkocHqzsoYa3m1xn-67" style="edgeStyle=orthogonalEdgeStyle;rounded=0;orthogonalLoop=1;jettySize=auto;html=1;entryX=0.5;entryY=0;entryDx=0;entryDy=0;" parent="1" source="OCj0DkocHqzsoYa3m1xn-56" target="OCj0DkocHqzsoYa3m1xn-44" edge="1">
          <mxGeometry relative="1" as="geometry" />
        </mxCell>
        <mxCell id="OCj0DkocHqzsoYa3m1xn-56" value="" style="shape=line;html=1;strokeWidth=6;strokeColor=#ff0000;" parent="1" vertex="1">
          <mxGeometry x="20" y="670" width="980" height="10" as="geometry" />
        </mxCell>
        <mxCell id="OCj0DkocHqzsoYa3m1xn-76" style="edgeStyle=orthogonalEdgeStyle;rounded=0;orthogonalLoop=1;jettySize=auto;html=1;" parent="1" source="OCj0DkocHqzsoYa3m1xn-71" target="OCj0DkocHqzsoYa3m1xn-50" edge="1">
          <mxGeometry relative="1" as="geometry" />
        </mxCell>
        <mxCell id="OCj0DkocHqzsoYa3m1xn-77" style="edgeStyle=orthogonalEdgeStyle;rounded=0;orthogonalLoop=1;jettySize=auto;html=1;entryX=0.5;entryY=0;entryDx=0;entryDy=0;" parent="1" source="OCj0DkocHqzsoYa3m1xn-71" target="OCj0DkocHqzsoYa3m1xn-51" edge="1">
          <mxGeometry relative="1" as="geometry" />
        </mxCell>
        <mxCell id="OCj0DkocHqzsoYa3m1xn-71" value="" style="shape=line;html=1;strokeWidth=6;strokeColor=#ff0000;" parent="1" vertex="1">
          <mxGeometry x="590" y="880" width="285" height="10" as="geometry" />
        </mxCell>
        <mxCell id="OCj0DkocHqzsoYa3m1xn-95" style="edgeStyle=orthogonalEdgeStyle;rounded=0;orthogonalLoop=1;jettySize=auto;html=1;" parent="1" source="OCj0DkocHqzsoYa3m1xn-81" target="OCj0DkocHqzsoYa3m1xn-93" edge="1">
          <mxGeometry relative="1" as="geometry">
            <Array as="points">
              <mxPoint x="400" y="1220" />
              <mxPoint x="400" y="1220" />
            </Array>
          </mxGeometry>
        </mxCell>
        <mxCell id="OCj0DkocHqzsoYa3m1xn-81" value="" style="shape=line;html=1;strokeWidth=6;strokeColor=#ff0000;" parent="1" vertex="1">
          <mxGeometry x="20" y="1160" width="1020" height="10" as="geometry" />
        </mxCell>
        <mxCell id="OCj0DkocHqzsoYa3m1xn-96" style="edgeStyle=orthogonalEdgeStyle;rounded=0;orthogonalLoop=1;jettySize=auto;html=1;entryX=0.5;entryY=0;entryDx=0;entryDy=0;" parent="1" source="OCj0DkocHqzsoYa3m1xn-93" target="OCj0DkocHqzsoYa3m1xn-94" edge="1">
          <mxGeometry relative="1" as="geometry" />
        </mxCell>
        <mxCell id="OCj0DkocHqzsoYa3m1xn-93" value="&lt;font style=&quot;font-size: 20px;&quot;&gt;SIGN OUT&lt;/font&gt;" style="rounded=1;whiteSpace=wrap;html=1;fillColor=#f8cecc;strokeColor=#b85450;" parent="1" vertex="1">
          <mxGeometry x="345" y="1260" width="120" height="60" as="geometry" />
        </mxCell>
        <mxCell id="OCj0DkocHqzsoYa3m1xn-94" value="" style="ellipse;html=1;shape=endState;fillColor=#000000;strokeColor=#ff0000;" parent="1" vertex="1">
          <mxGeometry x="370" y="1420" width="70" height="70" as="geometry" />
        </mxCell>
        <mxCell id="4Ag6bae1rezzJCkBHGkI-13" style="edgeStyle=orthogonalEdgeStyle;rounded=0;orthogonalLoop=1;jettySize=auto;html=1;" parent="1" source="4Ag6bae1rezzJCkBHGkI-8" edge="1">
          <mxGeometry relative="1" as="geometry">
            <mxPoint x="980" y="1160" as="targetPoint" />
          </mxGeometry>
        </mxCell>
        <mxCell id="4Ag6bae1rezzJCkBHGkI-8" value="" style="rhombus;whiteSpace=wrap;html=1;fillColor=#dae8fc;strokeColor=#6c8ebf;" parent="1" vertex="1">
          <mxGeometry x="940" y="920" width="80" height="80" as="geometry" />
        </mxCell>
        <mxCell id="4Ag6bae1rezzJCkBHGkI-9" value="EDIT&lt;br&gt;PROFILE" style="text;html=1;strokeColor=none;fillColor=none;align=center;verticalAlign=middle;whiteSpace=wrap;rounded=0;" parent="1" vertex="1">
          <mxGeometry x="950" y="940" width="60" height="30" as="geometry" />
        </mxCell>
        <mxCell id="4Ag6bae1rezzJCkBHGkI-27" style="edgeStyle=orthogonalEdgeStyle;rounded=0;orthogonalLoop=1;jettySize=auto;html=1;entryX=0.5;entryY=0;entryDx=0;entryDy=0;" parent="1" source="4Ag6bae1rezzJCkBHGkI-18" target="OCj0DkocHqzsoYa3m1xn-16" edge="1">
          <mxGeometry relative="1" as="geometry" />
        </mxCell>
        <mxCell id="4Ag6bae1rezzJCkBHGkI-18" value="&lt;span style=&quot;font-size: 10px;&quot;&gt;SPAM FILTER&lt;br&gt;&lt;/span&gt;" style="rhombus;whiteSpace=wrap;html=1;fillColor=#dae8fc;strokeColor=#6c8ebf;" parent="1" vertex="1">
          <mxGeometry x="410" y="350" width="100" height="80" as="geometry" />
        </mxCell>
        <mxCell id="4Ag6bae1rezzJCkBHGkI-28" value="NOT SPAM/&lt;br&gt;REAL USER" style="text;html=1;strokeColor=#82b366;fillColor=#d5e8d4;align=center;verticalAlign=middle;whiteSpace=wrap;rounded=0;" parent="1" vertex="1">
          <mxGeometry x="475" y="430" width="95" height="30" as="geometry" />
        </mxCell>
        <mxCell id="4Ag6bae1rezzJCkBHGkI-32" value="WRONG&lt;br&gt;CREDENTIALS" style="text;html=1;strokeColor=#b85450;fillColor=#f8cecc;align=center;verticalAlign=middle;whiteSpace=wrap;rounded=0;" parent="1" vertex="1">
          <mxGeometry x="185" y="440" width="85" height="30" as="geometry" />
        </mxCell>
        <mxCell id="4Ag6bae1rezzJCkBHGkI-34" value="WRONG&lt;br&gt;CREDENTIALS" style="text;html=1;strokeColor=#b85450;fillColor=#f8cecc;align=center;verticalAlign=middle;whiteSpace=wrap;rounded=0;" parent="1" vertex="1">
          <mxGeometry x="640" y="440" width="85" height="30" as="geometry" />
        </mxCell>
        <mxCell id="S631isHKvKU6RGQ-3sDz-4" style="edgeStyle=orthogonalEdgeStyle;rounded=0;orthogonalLoop=1;jettySize=auto;html=1;exitX=0;exitY=0.5;exitDx=0;exitDy=0;exitPerimeter=0;entryX=0.032;entryY=0.54;entryDx=0;entryDy=0;entryPerimeter=0;" edge="1" parent="1" source="OCj0DkocHqzsoYa3m1xn-81" target="OCj0DkocHqzsoYa3m1xn-81">
          <mxGeometry relative="1" as="geometry" />
        </mxCell>
      </root>
    </mxGraphModel>
  </diagram>
</mxfile>
